<svg xmlns="http://www.w3.org/2000/svg" width="20" height="20" fill="none" viewBox="0 0 20 20"><path fill="#9896A3" d="M13.037 2.66669C12.9936 2.88944 12.972 3.11587 12.9725 3.34278C12.9725 5.37869 14.6253 7.02913 16.6642 7.02913C16.8887 7.02802 17.1127 7.00647 17.3333 6.96474V14.273C17.3333 17.3477 15.5196 19.1667 12.4405 19.1667H5.73408C2.64688 19.1667 0.833252 17.3477 0.833252 14.273V7.57644C0.833252 4.50181 2.64688 2.66669 5.73408 2.66669H13.037ZM13.0402 8.16814C12.8609 8.19393 12.6998 8.29117 12.5936 8.43766L10.385 11.2789L7.87014 9.29888C7.72655 9.18702 7.5439 9.13763 7.36341 9.16187C7.18292 9.1861 7.01982 9.28191 6.91093 9.42766L4.20257 12.9208C4.10737 13.0395 4.05612 13.1873 4.05748 13.3394L4.05986 13.4405C4.08612 13.7064 4.26845 13.9361 4.5296 14.0185C4.82339 14.1112 5.14285 13.9942 5.30687 13.7338L7.57189 10.804L10.0868 12.776C10.2298 12.8913 10.4137 12.9436 10.5961 12.9208C10.7785 12.898 10.9439 12.8022 11.0541 12.6552L13.6738 9.27474V9.25864C13.898 8.95728 13.8408 8.53234 13.5448 8.30083C13.4015 8.19023 13.2194 8.14235 13.0402 8.16814Z"/><path fill="#9896A3" d="M16.8749 5.41668C18.1406 5.41668 19.1666 4.39066 19.1666 3.12501C19.1666 1.85936 18.1406 0.833344 16.8749 0.833344C15.6093 0.833344 14.5833 1.85936 14.5833 3.12501C14.5833 4.39066 15.6093 5.41668 16.8749 5.41668Z" opacity=".4"/></svg>