<svg width="17" height="19" viewBox="0 0 17 19" fill="none" xmlns="http://www.w3.org/2000/svg">
<path d="M11.963 14.7492C11.5464 14.74 11.2113 14.3917 11.2113 13.97C11.2023 13.5483 11.5373 13.2009 11.9539 13.1918H11.963C12.3886 13.1918 12.7327 13.5401 12.7327 13.97C12.7327 14.4008 12.3886 14.7492 11.963 14.7492ZM8.26811 11.3758C7.85154 11.3951 7.50741 11.0642 7.4893 10.6434C7.4893 10.2218 7.81531 9.87342 8.23189 9.85417C8.63941 9.85417 8.97448 10.1759 8.98353 10.5875C9.00165 11.0101 8.67563 11.3584 8.26811 11.3758ZM8.26811 14.7033C7.85154 14.7226 7.50741 14.3917 7.4893 13.97C7.4893 13.5483 7.81531 13.2009 8.23189 13.1817C8.63941 13.1817 8.97448 13.5034 8.98353 13.9159C9.00165 14.3376 8.67563 14.6859 8.26811 14.7033ZM4.5461 11.3758C4.12953 11.3951 3.7854 11.0642 3.76729 10.6434C3.76729 10.2218 4.0933 9.87342 4.50988 9.85417C4.9174 9.85417 5.25247 10.1759 5.26153 10.5875C5.27964 11.0101 4.95362 11.3584 4.5461 11.3758ZM4.53705 14.7033C4.12047 14.7226 3.77634 14.3917 3.75823 13.97C3.75823 13.5483 4.08425 13.2009 4.50082 13.1817C4.90834 13.1817 5.24341 13.5034 5.25247 13.9159C5.27058 14.3376 4.94457 14.6859 4.53705 14.7033ZM11.2204 10.6343C11.2204 10.2126 11.5464 9.87342 11.963 9.86425C12.3705 9.86425 12.6965 10.1933 12.7146 10.5976C12.7237 11.0193 12.3976 11.3676 11.9901 11.3758C11.5735 11.385 11.2294 11.0642 11.2204 10.6434V10.6343ZM0 6.65225V13.6308C0 16.5275 1.82931 18.3333 4.70006 18.3333H11.7909C14.6888 18.3333 16.5 16.5642 16.5 13.6868V6.65225H0Z" fill="#9896A3"/>
<path opacity="0.4" d="M0.00317383 6.65217C0.0149466 6.11409 0.0602265 5.04617 0.145353 4.70242C0.58004 2.76917 2.05616 1.54084 4.16621 1.36575H12.3347C14.4266 1.55 15.9209 2.78659 16.3556 4.70242C16.4398 5.037 16.4851 6.11317 16.4968 6.65217H0.00317383Z" fill="#9896A3"/>
<path d="M4.86284 4.2075C5.2613 4.2075 5.56015 3.90592 5.56015 3.50167V0.70675C5.56015 0.3025 5.2613 0 4.86284 0C4.46437 0 4.16553 0.3025 4.16553 0.70675V3.50167C4.16553 3.90592 4.46437 4.2075 4.86284 4.2075Z" fill="#9896A3"/>
<path d="M11.637 4.2075C12.0264 4.2075 12.3343 3.90592 12.3343 3.50167V0.70675C12.3343 0.3025 12.0264 0 11.637 0C11.2385 0 10.9397 0.3025 10.9397 0.70675V3.50167C10.9397 3.90592 11.2385 4.2075 11.637 4.2075Z" fill="#9896A3"/>
</svg>
