<svg width="19" height="19" viewBox="0 0 19 19" fill="none" xmlns="http://www.w3.org/2000/svg">
<path opacity="0.4" d="M13.644 2.85527H10.9462C10.2741 2.85972 9.63598 2.56076 9.21009 2.04188L8.32169 0.813655C7.90292 0.290229 7.26486 -0.010134 6.59378 0.000261211H4.68656C1.26334 0.000261211 7.38735e-07 2.00934 7.38735e-07 5.4256V9.11841C-0.00424909 9.52452 18.3293 9.524 18.3305 9.11841V8.04473C18.3468 4.62847 17.1161 2.85527 13.644 2.85527Z" fill="#F5FFFC"/>
<path d="M13.6358 2.85532C14.8319 2.76282 16.019 3.12288 16.9612 3.86393C17.0697 3.95595 17.1706 4.05659 17.2628 4.16489C17.5561 4.50779 17.7827 4.90225 17.9311 5.32804C18.2232 6.20317 18.3584 7.12281 18.3305 8.04478V12.8601C18.3293 13.2657 18.2994 13.6707 18.2409 14.072C18.1294 14.7804 17.8802 15.4601 17.5073 16.073C17.3359 16.369 17.1278 16.6423 16.8879 16.8864C15.8018 17.8832 14.3595 18.402 12.886 18.3261H5.43639C3.96045 18.4015 2.5159 17.8828 1.42634 16.8864C1.18929 16.6418 0.983919 16.3686 0.815052 16.073C0.444354 15.4605 0.200465 14.7802 0.097807 14.072C0.0325311 13.6713 0 13.266 0 12.8601V8.04478C0 7.64262 0.0216079 7.24075 0.065205 6.84095C0.0896565 6.65387 0.14671 6.47493 0.14671 6.29598C0.229447 5.81351 0.380378 5.34521 0.594988 4.90508C1.23073 3.54671 2.53481 2.85532 4.67025 2.85532H13.6358ZM13.8559 10.8998H4.55614C4.13751 10.8998 3.79814 11.2385 3.79814 11.6562C3.79814 12.074 4.13751 12.4127 4.55614 12.4127H13.7988C14.0013 12.4215 14.1988 12.349 14.3474 12.2115C14.4959 12.0739 14.5831 11.8828 14.5894 11.6806C14.6009 11.503 14.5424 11.3279 14.4264 11.1926C14.293 11.0108 14.0816 10.9023 13.8559 10.8998Z" fill="#F5FFFC"/>
</svg>
