<svg width="20" height="20" viewBox="0 0 20 20" fill="none" xmlns="http://www.w3.org/2000/svg">
<path d="M8.30661 4.09257C8.3533 4.1876 8.38413 4.28936 8.39794 4.39398L8.65317 8.18891L8.77987 10.0963C8.78118 10.2925 8.81195 10.4874 8.8712 10.6747C9.02422 11.0382 9.39232 11.2692 9.7928 11.2531L15.8953 10.8539C16.1596 10.8496 16.4148 10.9484 16.6047 11.1287C16.763 11.2789 16.8652 11.4754 16.8974 11.6868L16.9082 11.8152C16.6557 15.312 14.0875 18.2286 10.5979 18.9815C7.10834 19.7344 3.52996 18.1439 1.80557 15.0737C1.30844 14.1817 0.997931 13.2012 0.892269 12.1899C0.848128 11.8905 0.828692 11.5881 0.83415 11.2857C0.8287 7.53668 3.49843 4.29555 7.23556 3.51419C7.68534 3.44416 8.12628 3.68227 8.30661 4.09257Z" fill="#9896A3"/>
<path opacity="0.4" d="M10.7974 0.834094C14.9773 0.940435 18.4903 3.94615 19.1665 7.99461L19.1601 8.02448L19.1416 8.06793L19.1442 8.18717C19.1346 8.34516 19.0736 8.49717 18.9685 8.61995C18.859 8.74785 18.7094 8.83495 18.5446 8.86876L18.4442 8.88255L11.4035 9.33873C11.1693 9.36183 10.9361 9.28631 10.7619 9.13097C10.6168 9.00151 10.524 8.82676 10.4978 8.63846L10.0252 1.60798C10.017 1.58421 10.017 1.55844 10.0252 1.53467C10.0317 1.34088 10.117 1.1577 10.2621 1.02605C10.4072 0.894412 10.5999 0.825277 10.7974 0.834094Z" fill="#9896A3"/>
</svg>
